<?xml version="1.0" encoding="utf-8"?>


<!-- The icon can be used freely in both personal and commercial projects with no attribution required, but always appreciated. 
You may NOT sub-license, resell, rent, redistribute or otherwise transfer the icon without express written permission from iconmonstr.com -->


<!DOCTYPE svg PUBLIC "-//W3C//DTD SVG 1.1//EN" "http://www.w3.org/Graphics/SVG/1.1/DTD/svg11.dtd">

<svg style="fill: white;" xmlns="http://www.w3.org/2000/svg" xmlns:xlink="http://www.w3.org/1999/xlink" version="1.1" id="Layer_1" x="0px" y="0px" width="100%" height="100%" viewBox="0 0 512 512" enable-background="new 0 0 512 512" xml:space="preserve" xmlns:xml="http://www.w3.org/XML/1998/namespace">
<path fill-rule="evenodd" clip-rule="evenodd" d="M74.966,437.013c-99.97-99.97-99.97-262.066,0-362.037  c100.002-99.97,262.067-99.97,362.068,0c99.97,99.971,99.97,262.067,0,362.037C337.033,536.998,174.968,536.998,74.966,437.013z   M391.783,120.227c-75.001-74.985-196.565-74.985-271.535,0c-75.001,74.985-75.001,196.55,0,271.535  c74.97,74.986,196.534,74.986,271.535,0C466.754,316.776,466.754,195.212,391.783,120.227z M188.124,369.137l-45.251-45.266  l67.876-67.877l-67.876-67.876l45.251-45.267L256,210.743l67.877-67.892l45.25,45.267l-67.876,67.876l67.876,67.877l-45.25,45.266  L256,301.245L188.124,369.137z"/>
</svg>


