<?xml version="1.0" encoding="UTF-8" standalone="no"?>
<svg width="24px" height="32px" viewBox="0 0 24 32" version="1.1" xmlns="http://www.w3.org/2000/svg" xmlns:xlink="http://www.w3.org/1999/xlink" xmlns:sketch="http://www.bohemiancoding.com/sketch/ns">
    <!-- Generator: Sketch 3.0.3 (7892) - http://www.bohemiancoding.com/sketch -->
    <title>Slice 1</title>
    <desc>Created with Sketch.</desc>
    <defs></defs>
    <g id="Page-1" stroke="none" stroke-width="1" fill="none" fill-rule="evenodd" sketch:type="MSPage">
        <g id="file" sketch:type="MSLayerGroup"></g>
        <path d="M1.5,32 L22.5,32 C23.327,32 24,31.327 24,30.5 L24,9.5 C24,9.483 23.992,9.469 23.991,9.453 C23.989,9.43 23.983,9.41 23.978,9.388 C23.961,9.317 23.932,9.253 23.888,9.197 C23.881,9.188 23.882,9.177 23.875,9.168 L15.875,0.168 C15.872,0.165 15.868,0.165 15.865,0.162 C15.805,0.098 15.729,0.054 15.642,0.028 C15.623,0.022 15.606,0.02 15.586,0.017 C15.557,0.012 15.53,0 15.5,0 L1.5,0 C0.673,0 -3.55271368e-15,0.673 -3.55271368e-15,1.5 L-3.55271368e-15,30.5 C-3.55271368e-15,31.327 0.673,32 1.5,32 L1.5,32 Z" id="Path-2" fill="#FFFFFF" sketch:type="MSShapeGroup"></path>
        <path d="M1.5,32 L22.5,32 C23.327,32 24,31.327 24,30.5 L24,9.5 C24,9.483 23.992,9.469 23.991,9.453 C23.989,9.43 23.983,9.41 23.978,9.388 C23.961,9.317 23.932,9.253 23.888,9.197 C23.881,9.188 23.882,9.177 23.875,9.168 L15.875,0.168 C15.872,0.165 15.868,0.165 15.865,0.162 C15.805,0.098 15.729,0.054 15.642,0.028 C15.623,0.022 15.606,0.02 15.586,0.017 C15.557,0.012 15.53,-7.52869989e-16 15.5,-7.52869989e-16 L1.5,-7.52869989e-16 C0.673,-7.52869989e-16 -3.55271368e-15,0.673 -3.55271368e-15,1.5 L-3.55271368e-15,30.5 C-3.55271368e-15,31.327 0.673,32 1.5,32 L1.5,32 Z M16,1.815 L22.387,9 L16.5,9 C16.28,9 16,8.58 16,8.25 L16,1.815 L16,1.815 Z M1,1.5 C1,1.224 1.225,1 1.5,1 L15,1 L15,8.25 C15,9.059 15.655,10 16.5,10 L23,10 L23,30.5 C23,30.776 22.775,31 22.5,31 L1.5,31 C1.22,31 1,30.78 1,30.5 L1,1.5 L1,1.5 Z M5.5,14 L18.5,14 C18.776,14 19,13.776 19,13.5 C19,13.224 18.776,13 18.5,13 L5.5,13 C5.224,13 5,13.224 5,13.5 C5,13.776 5.224,14 5.5,14 L5.5,14 Z M5.5,18 L18.5,18 C18.776,18 19,17.776 19,17.5 C19,17.224 18.776,17 18.5,17 L5.5,17 C5.224,17 5,17.224 5,17.5 C5,17.776 5.224,18 5.5,18 L5.5,18 Z M5.5,10 L11.5,10 C11.776,10 12,9.776 12,9.5 C12,9.224 11.776,9 11.5,9 L5.5,9 C5.224,9 5,9.224 5,9.5 C5,9.776 5.224,10 5.5,10 L5.5,10 Z M5.5,22 L18.5,22 C18.776,22 19,21.776 19,21.5 C19,21.224 18.776,21 18.5,21 L5.5,21 C5.224,21 5,21.224 5,21.5 C5,21.776 5.224,22 5.5,22 L5.5,22 Z M5.5,26 L18.5,26 C18.776,26 19,25.776 19,25.5 C19,25.224 18.776,25 18.5,25 L5.5,25 C5.224,25 5,25.224 5,25.5 C5,25.776 5.224,26 5.5,26 L5.5,26 Z" id="Shape" fill="#000000" sketch:type="MSShapeGroup"></path>
    </g>
</svg>